<svg width="274" height="218" viewBox="0 0 274 218" fill="none" xmlns="http://www.w3.org/2000/svg">
<g id="Frame 1" clip-path="url(#clip0_1002_2)">
<g id="baguette">
<g id="baguette_body">
<g id="baguette_back" filter="url(#filter0_i_1002_2)">
<path d="M220.5 102C232.926 102 243 112.074 243 124.5V194H198V124.5C198 112.074 208.074 102 220.5 102Z" fill="#DE9800"/>
</g>
<g id="baguette_main">
<path d="M220.5 102C232.926 102 243 112.074 243 124.5V194H226.08C226.438 193.65 226.797 193.316 227.16 192.974C227.928 192.248 228.715 191.47 229.304 190.466C229.82 189.585 230.366 188.711 230.907 187.84C231.445 186.974 231.979 186.112 232.454 185.277C233.703 183.085 234.876 180.591 235.382 178.761C235.613 177.925 235.953 177.179 236.325 176.193C236.683 175.247 237.026 174.177 237.14 172.907C237.392 170.089 237.636 160.645 237.636 156C237.636 155.991 237.634 155.982 237.634 155.973C237.633 155.95 237.633 155.928 237.631 155.906C237.626 155.857 237.618 155.809 237.606 155.762C237.602 155.744 237.598 155.727 237.593 155.71C237.569 155.631 237.535 155.557 237.494 155.488C237.487 155.477 237.48 155.465 237.473 155.454C237.464 155.441 237.455 155.429 237.446 155.416C237.435 155.4 237.423 155.385 237.411 155.37C237.406 155.364 237.401 155.358 237.396 155.352C237.385 155.339 237.375 155.326 237.363 155.313L237.343 155.293C237.339 155.29 237.336 155.287 237.332 155.283C237.314 155.266 237.296 155.249 237.277 155.233C237.268 155.225 237.258 155.218 237.248 155.21C237.233 155.198 237.218 155.187 237.202 155.176C237.195 155.171 237.186 155.166 237.179 155.161C237.135 155.133 237.089 155.107 237.04 155.085C237.015 155.074 236.99 155.065 236.964 155.056C236.959 155.054 236.954 155.052 236.948 155.05L236.934 155.045C236.921 155.041 236.908 155.039 236.896 155.035C236.844 155.021 236.792 155.01 236.74 155.005C236.733 155.004 236.725 155.005 236.718 155.004C236.696 155.002 236.673 155 236.651 155H236.636C236.627 155 236.618 155.001 236.609 155.001C236.586 155.002 236.564 155.002 236.541 155.004C236.53 155.005 236.519 155.007 236.508 155.009C236.485 155.012 236.463 155.014 236.44 155.019C236.432 155.02 236.423 155.023 236.415 155.024C236.393 155.03 236.371 155.035 236.349 155.042C236.327 155.048 236.307 155.056 236.286 155.063C236.281 155.065 236.276 155.067 236.271 155.069C236.247 155.078 236.225 155.089 236.203 155.1C236.193 155.104 236.183 155.108 236.174 155.113C236.163 155.119 236.152 155.126 236.142 155.132C236.122 155.143 236.103 155.154 236.084 155.166C236.075 155.172 236.067 155.179 236.058 155.186C236.043 155.196 236.027 155.206 236.013 155.218C235.998 155.229 235.984 155.242 235.971 155.254C235.961 155.262 235.952 155.271 235.942 155.28C235.927 155.295 235.912 155.31 235.897 155.326C235.89 155.334 235.883 155.342 235.876 155.351C235.866 155.362 235.857 155.375 235.848 155.387C235.838 155.399 235.827 155.411 235.818 155.424C235.804 155.444 235.79 155.466 235.777 155.487C235.773 155.494 235.769 155.502 235.765 155.509C235.726 155.578 235.695 155.652 235.673 155.73C235.275 156.959 235.264 157.826 235.21 158.299C235.159 158.753 235.065 159.028 234.933 159.493L234.931 159.501C234.471 161.168 233.782 162.547 232.841 163.958C232.367 164.669 231.795 165.393 231.146 166.263C230.511 167.113 229.833 168.062 229.227 169.14C228.397 170.615 227.292 172.097 226.216 173.529C225.171 174.919 223.85 176.143 222.442 176.962C221.724 177.38 220.998 177.72 220.132 178.175C219.296 178.614 218.404 179.124 217.52 179.814C215.642 181.278 213.851 182.448 212.519 183.945C210.908 185.755 209.963 187.742 209.092 189.134C208.391 190.255 207.351 192.078 206.508 194H198V124.5C198 112.074 208.074 102 220.5 102ZM234.609 110.001C234.586 110.002 234.564 110.002 234.541 110.004C234.53 110.005 234.519 110.007 234.508 110.009C234.485 110.012 234.463 110.014 234.44 110.019C234.432 110.02 234.423 110.023 234.415 110.024C234.393 110.03 234.371 110.035 234.349 110.042C234.327 110.048 234.307 110.056 234.286 110.063C234.281 110.065 234.276 110.067 234.271 110.069C234.247 110.078 234.225 110.089 234.203 110.1C234.193 110.104 234.183 110.108 234.174 110.113C234.163 110.119 234.152 110.126 234.142 110.132C234.122 110.143 234.103 110.154 234.084 110.166C234.075 110.172 234.067 110.179 234.058 110.186C234.043 110.196 234.027 110.206 234.013 110.218C233.998 110.229 233.984 110.242 233.971 110.254C233.961 110.262 233.952 110.271 233.942 110.28C233.927 110.295 233.912 110.31 233.897 110.326C233.89 110.334 233.883 110.342 233.876 110.351C233.866 110.362 233.857 110.375 233.848 110.387C233.838 110.399 233.827 110.411 233.818 110.424C233.804 110.444 233.79 110.466 233.777 110.487C233.773 110.494 233.769 110.502 233.765 110.509C233.726 110.578 233.695 110.652 233.673 110.73C233.275 111.959 233.264 112.826 233.21 113.299C233.159 113.753 233.065 114.028 232.933 114.493L232.931 114.501C232.471 116.168 231.782 117.547 230.841 118.958C230.367 119.669 229.795 120.393 229.146 121.263C228.511 122.113 227.833 123.062 227.227 124.14C226.397 125.615 225.292 127.097 224.216 128.529C223.171 129.919 221.85 131.143 220.442 131.962C219.724 132.38 218.998 132.72 218.132 133.175C217.296 133.614 216.404 134.124 215.52 134.814C213.642 136.278 211.851 137.448 210.519 138.945C208.908 140.755 207.963 142.742 207.092 144.134C206.148 145.642 204.591 148.424 203.726 151.007C203.393 152.001 202.628 154.949 202.238 158.265C201.855 161.528 201.8 165.408 203.101 168.096C203.199 168.299 203.295 168.504 203.392 168.707C203.501 169.091 203.641 169.574 203.807 170.091C203.988 170.655 204.042 170.866 204.142 171.188C204.221 171.444 204.352 171.673 204.432 171.811C204.454 171.848 204.475 171.885 204.494 171.917C204.514 171.95 204.53 171.978 204.545 172.003C204.559 172.028 204.57 172.047 204.578 172.062C204.585 172.075 204.589 172.082 204.589 172.083C204.658 172.235 204.76 172.362 204.883 172.458C205.001 172.708 205.221 172.908 205.508 172.991C205.959 173.121 206.427 172.918 206.651 172.527C206.768 172.461 206.873 172.371 206.958 172.257C207.171 171.97 207.206 171.606 207.085 171.296C207.088 171.287 207.092 171.278 207.096 171.269C207.217 170.943 207.35 170.589 207.484 170.151L207.491 170.13L207.497 170.108C207.968 168.282 208.677 166.271 209.331 164.716C210.514 162.849 212.068 160.414 213.287 158.904C214.782 157.054 216.622 155.296 218.248 154.007C218.962 153.441 219.667 153.012 220.499 152.428C221.293 151.87 222.119 151.222 222.84 150.338C223.592 149.416 224.373 148.717 225.16 147.974C225.928 147.248 226.715 146.47 227.304 145.466C227.82 144.585 228.366 143.711 228.907 142.84C229.445 141.974 229.979 141.112 230.454 140.277C231.703 138.085 232.876 135.591 233.382 133.761C233.613 132.925 233.953 132.179 234.325 131.193C234.683 130.247 235.026 129.177 235.14 127.907C235.392 125.089 235.636 115.645 235.636 111C235.636 110.991 235.634 110.982 235.634 110.973C235.633 110.95 235.633 110.928 235.631 110.906C235.626 110.857 235.618 110.809 235.606 110.762C235.602 110.744 235.598 110.727 235.593 110.71C235.569 110.631 235.535 110.557 235.494 110.488C235.487 110.477 235.48 110.465 235.473 110.454C235.464 110.441 235.455 110.429 235.446 110.416C235.435 110.4 235.423 110.385 235.411 110.37C235.406 110.364 235.401 110.358 235.396 110.352C235.385 110.339 235.375 110.326 235.363 110.313L235.343 110.293C235.339 110.29 235.336 110.287 235.332 110.283C235.314 110.266 235.296 110.249 235.277 110.233C235.268 110.225 235.258 110.218 235.248 110.21C235.233 110.198 235.218 110.187 235.202 110.176C235.195 110.171 235.186 110.166 235.179 110.161C235.135 110.133 235.089 110.107 235.04 110.085C235.015 110.074 234.99 110.065 234.964 110.056C234.959 110.054 234.954 110.052 234.948 110.05L234.934 110.045C234.921 110.041 234.908 110.039 234.896 110.035C234.844 110.021 234.792 110.01 234.74 110.005C234.733 110.004 234.725 110.005 234.718 110.004C234.696 110.002 234.673 110 234.651 110H234.636C234.627 110 234.618 110.001 234.609 110.001ZM235.522 163.498C235.499 163.497 235.475 163.498 235.452 163.499C235.477 163.454 235.502 163.41 235.526 163.365C235.525 163.41 235.524 163.454 235.522 163.498Z" fill="#FF9D00"/>
<path d="M220.5 102C232.926 102 243 112.074 243 124.5V194H226.08C226.438 193.65 226.797 193.316 227.16 192.974C227.928 192.248 228.715 191.47 229.304 190.466C229.82 189.585 230.366 188.711 230.907 187.84C231.445 186.974 231.979 186.112 232.454 185.277C233.703 183.085 234.876 180.591 235.382 178.761C235.613 177.925 235.953 177.179 236.325 176.193C236.683 175.247 237.026 174.177 237.14 172.907C237.392 170.089 237.636 160.645 237.636 156C237.636 155.991 237.634 155.982 237.634 155.973C237.633 155.95 237.633 155.928 237.631 155.906C237.626 155.857 237.618 155.809 237.606 155.762C237.602 155.744 237.598 155.727 237.593 155.71C237.569 155.631 237.535 155.557 237.494 155.488C237.487 155.477 237.48 155.465 237.473 155.454C237.464 155.441 237.455 155.429 237.446 155.416C237.435 155.4 237.423 155.385 237.411 155.37C237.406 155.364 237.401 155.358 237.396 155.352C237.385 155.339 237.375 155.326 237.363 155.313L237.343 155.293C237.339 155.29 237.336 155.287 237.332 155.283C237.314 155.266 237.296 155.249 237.277 155.233C237.268 155.225 237.258 155.218 237.248 155.21C237.233 155.198 237.218 155.187 237.202 155.176C237.195 155.171 237.186 155.166 237.179 155.161C237.135 155.133 237.089 155.107 237.04 155.085C237.015 155.074 236.99 155.065 236.964 155.056C236.959 155.054 236.954 155.052 236.948 155.05L236.934 155.045C236.921 155.041 236.908 155.039 236.896 155.035C236.844 155.021 236.792 155.01 236.74 155.005C236.733 155.004 236.725 155.005 236.718 155.004C236.696 155.002 236.673 155 236.651 155H236.636C236.627 155 236.618 155.001 236.609 155.001C236.586 155.002 236.564 155.002 236.541 155.004C236.53 155.005 236.519 155.007 236.508 155.009C236.485 155.012 236.463 155.014 236.44 155.019C236.432 155.02 236.423 155.023 236.415 155.024C236.393 155.03 236.371 155.035 236.349 155.042C236.327 155.048 236.307 155.056 236.286 155.063C236.281 155.065 236.276 155.067 236.271 155.069C236.247 155.078 236.225 155.089 236.203 155.1C236.193 155.104 236.183 155.108 236.174 155.113C236.163 155.119 236.152 155.126 236.142 155.132C236.122 155.143 236.103 155.154 236.084 155.166C236.075 155.172 236.067 155.179 236.058 155.186C236.043 155.196 236.027 155.206 236.013 155.218C235.998 155.229 235.984 155.242 235.971 155.254C235.961 155.262 235.952 155.271 235.942 155.28C235.927 155.295 235.912 155.31 235.897 155.326C235.89 155.334 235.883 155.342 235.876 155.351C235.866 155.362 235.857 155.375 235.848 155.387C235.838 155.399 235.827 155.411 235.818 155.424C235.804 155.444 235.79 155.466 235.777 155.487C235.773 155.494 235.769 155.502 235.765 155.509C235.726 155.578 235.695 155.652 235.673 155.73C235.275 156.959 235.264 157.826 235.21 158.299C235.159 158.753 235.065 159.028 234.933 159.493L234.931 159.501C234.471 161.168 233.782 162.547 232.841 163.958C232.367 164.669 231.795 165.393 231.146 166.263C230.511 167.113 229.833 168.062 229.227 169.14C228.397 170.615 227.292 172.097 226.216 173.529C225.171 174.919 223.85 176.143 222.442 176.962C221.724 177.38 220.998 177.72 220.132 178.175C219.296 178.614 218.404 179.124 217.52 179.814C215.642 181.278 213.851 182.448 212.519 183.945C210.908 185.755 209.963 187.742 209.092 189.134C208.391 190.255 207.351 192.078 206.508 194H198V124.5C198 112.074 208.074 102 220.5 102ZM234.609 110.001C234.586 110.002 234.564 110.002 234.541 110.004C234.53 110.005 234.519 110.007 234.508 110.009C234.485 110.012 234.463 110.014 234.44 110.019C234.432 110.02 234.423 110.023 234.415 110.024C234.393 110.03 234.371 110.035 234.349 110.042C234.327 110.048 234.307 110.056 234.286 110.063C234.281 110.065 234.276 110.067 234.271 110.069C234.247 110.078 234.225 110.089 234.203 110.1C234.193 110.104 234.183 110.108 234.174 110.113C234.163 110.119 234.152 110.126 234.142 110.132C234.122 110.143 234.103 110.154 234.084 110.166C234.075 110.172 234.067 110.179 234.058 110.186C234.043 110.196 234.027 110.206 234.013 110.218C233.998 110.229 233.984 110.242 233.971 110.254C233.961 110.262 233.952 110.271 233.942 110.28C233.927 110.295 233.912 110.31 233.897 110.326C233.89 110.334 233.883 110.342 233.876 110.351C233.866 110.362 233.857 110.375 233.848 110.387C233.838 110.399 233.827 110.411 233.818 110.424C233.804 110.444 233.79 110.466 233.777 110.487C233.773 110.494 233.769 110.502 233.765 110.509C233.726 110.578 233.695 110.652 233.673 110.73C233.275 111.959 233.264 112.826 233.21 113.299C233.159 113.753 233.065 114.028 232.933 114.493L232.931 114.501C232.471 116.168 231.782 117.547 230.841 118.958C230.367 119.669 229.795 120.393 229.146 121.263C228.511 122.113 227.833 123.062 227.227 124.14C226.397 125.615 225.292 127.097 224.216 128.529C223.171 129.919 221.85 131.143 220.442 131.962C219.724 132.38 218.998 132.72 218.132 133.175C217.296 133.614 216.404 134.124 215.52 134.814C213.642 136.278 211.851 137.448 210.519 138.945C208.908 140.755 207.963 142.742 207.092 144.134C206.148 145.642 204.591 148.424 203.726 151.007C203.393 152.001 202.628 154.949 202.238 158.265C201.855 161.528 201.8 165.408 203.101 168.096C203.199 168.299 203.295 168.504 203.392 168.707C203.501 169.091 203.641 169.574 203.807 170.091C203.988 170.655 204.042 170.866 204.142 171.188C204.221 171.444 204.352 171.673 204.432 171.811C204.454 171.848 204.475 171.885 204.494 171.917C204.514 171.95 204.53 171.978 204.545 172.003C204.559 172.028 204.57 172.047 204.578 172.062C204.585 172.075 204.589 172.082 204.589 172.083C204.658 172.235 204.76 172.362 204.883 172.458C205.001 172.708 205.221 172.908 205.508 172.991C205.959 173.121 206.427 172.918 206.651 172.527C206.768 172.461 206.873 172.371 206.958 172.257C207.171 171.97 207.206 171.606 207.085 171.296C207.088 171.287 207.092 171.278 207.096 171.269C207.217 170.943 207.35 170.589 207.484 170.151L207.491 170.13L207.497 170.108C207.968 168.282 208.677 166.271 209.331 164.716C210.514 162.849 212.068 160.414 213.287 158.904C214.782 157.054 216.622 155.296 218.248 154.007C218.962 153.441 219.667 153.012 220.499 152.428C221.293 151.87 222.119 151.222 222.84 150.338C223.592 149.416 224.373 148.717 225.16 147.974C225.928 147.248 226.715 146.47 227.304 145.466C227.82 144.585 228.366 143.711 228.907 142.84C229.445 141.974 229.979 141.112 230.454 140.277C231.703 138.085 232.876 135.591 233.382 133.761C233.613 132.925 233.953 132.179 234.325 131.193C234.683 130.247 235.026 129.177 235.14 127.907C235.392 125.089 235.636 115.645 235.636 111C235.636 110.991 235.634 110.982 235.634 110.973C235.633 110.95 235.633 110.928 235.631 110.906C235.626 110.857 235.618 110.809 235.606 110.762C235.602 110.744 235.598 110.727 235.593 110.71C235.569 110.631 235.535 110.557 235.494 110.488C235.487 110.477 235.48 110.465 235.473 110.454C235.464 110.441 235.455 110.429 235.446 110.416C235.435 110.4 235.423 110.385 235.411 110.37C235.406 110.364 235.401 110.358 235.396 110.352C235.385 110.339 235.375 110.326 235.363 110.313L235.343 110.293C235.339 110.29 235.336 110.287 235.332 110.283C235.314 110.266 235.296 110.249 235.277 110.233C235.268 110.225 235.258 110.218 235.248 110.21C235.233 110.198 235.218 110.187 235.202 110.176C235.195 110.171 235.186 110.166 235.179 110.161C235.135 110.133 235.089 110.107 235.04 110.085C235.015 110.074 234.99 110.065 234.964 110.056C234.959 110.054 234.954 110.052 234.948 110.05L234.934 110.045C234.921 110.041 234.908 110.039 234.896 110.035C234.844 110.021 234.792 110.01 234.74 110.005C234.733 110.004 234.725 110.005 234.718 110.004C234.696 110.002 234.673 110 234.651 110H234.636C234.627 110 234.618 110.001 234.609 110.001ZM235.522 163.498C235.499 163.497 235.475 163.498 235.452 163.499C235.477 163.454 235.502 163.41 235.526 163.365C235.525 163.41 235.524 163.454 235.522 163.498Z" fill="#FEF0F0" fill-opacity="0.2"/>
</g>
</g>
<g id="baguette_face">
<rect id="baguette_mouth" x="221" y="132" width="33" height="3" rx="1.5" fill="black"/>
<circle id="baguette_right_eye" cx="215.5" cy="119.5" r="1.5" fill="black"/>
</g>
</g>
<g id="pizza">
<g id="pizza_body">
<rect id="Rectangle 9" x="94" y="28" width="84" height="20" fill="#EBB400"/>
<path id="Subtract" d="M196.702 36.4984L154.436 193.887L117.458 193.62L77.5709 35.5721L196.702 36.4984Z" fill="#EBB400"/>
<path id="Subtract_2" d="M137.462 13C168.328 13 194.192 22.7962 201 35.9609L191.894 55.999C187.149 41.1639 164.443 29.9199 137.148 29.9199C110.174 29.92 87.6816 40.9017 82.5781 55.4785L74 35.8174C80.9212 22.7251 106.708 13.0001 137.462 13Z" fill="#C35F34"/>
<circle id="Ellipse 8" cx="115" cy="88" r="11" fill="#FF0000"/>
<circle id="Ellipse 9" cx="150" cy="120" r="11" fill="#FF0000"/>
<circle id="Ellipse 10" cx="127" cy="165" r="11" fill="#FF0000"/>
<circle id="Ellipse 11" cx="111" cy="85" r="2" fill="#DADADA"/>
<circle id="Ellipse 12" cx="120" cy="83" r="2" fill="#DADADA"/>
<circle id="Ellipse 13" cx="118" cy="94" r="2" fill="#DADADA"/>
<circle id="Ellipse 14" cx="110" cy="93" r="2" fill="#DADADA"/>
<circle id="Ellipse 15" cx="146" cy="115" r="2" fill="#DADADA"/>
<circle id="Ellipse 16" cx="154" cy="113" r="2" fill="#DADADA"/>
<circle id="Ellipse 17" cx="150" cy="121" r="2" fill="#DADADA"/>
<circle id="Ellipse 18" cx="145" cy="126" r="2" fill="#DADADA"/>
<circle id="Ellipse 20" cx="122" cy="160" r="2" fill="#DADADA"/>
<circle id="Ellipse 21" cx="129" cy="162" r="2" fill="#DADADA"/>
<circle id="Ellipse 22" cx="124" cy="168" r="2" fill="#DADADA"/>
<circle id="Ellipse 24" cx="129" cy="172" r="2" fill="#DADADA"/>
<circle id="Ellipse 23" cx="133" cy="168" r="2" fill="#DADADA"/>
<circle id="Ellipse 19" cx="156" cy="124" r="2" fill="#DADADA"/>
<rect id="Rectangle 10" x="113.484" y="111" width="4" height="16" transform="rotate(20.0431 113.484 111)" fill="#B79200"/>
<rect id="Rectangle 11" x="169.797" y="77.4533" width="4" height="16" transform="rotate(-5.98981 169.797 77.4533)" fill="#B79200"/>
<rect id="Rectangle 20" x="183.371" y="56.7206" width="4" height="16" transform="rotate(39.5115 183.371 56.7206)" fill="#B79200"/>
<rect id="Rectangle 12" x="139" y="77.44" width="4" height="16" transform="rotate(-37.5902 139 77.44)" fill="#B79200"/>
<rect id="Rectangle 13" x="142.217" y="141.492" width="4" height="16" transform="rotate(-16.9737 142.217 141.492)" fill="#B79200"/>
<rect id="Rectangle 14" x="124.084" y="138" width="4" height="16" transform="rotate(54.8587 124.084 138)" fill="#B79200"/>
<rect id="Rectangle 15" x="150.084" y="178" width="4" height="16" transform="rotate(54.8587 150.084 178)" fill="#B79200"/>
<rect id="Rectangle 16" x="106.084" y="60" width="4" height="16" transform="rotate(54.8587 106.084 60)" fill="#B79200"/>
<rect id="Rectangle 17" x="167.411" y="39.3249" width="4" height="16" transform="rotate(98.3549 167.411 39.3249)" fill="#B79200"/>
<rect id="Rectangle 18" x="131.084" y="36" width="4" height="16" transform="rotate(54.8587 131.084 36)" fill="#B79200"/>
<rect id="Rectangle 19" x="190.608" y="35.6876" width="4" height="21.7235" rx="2" transform="rotate(122.886 190.608 35.6876)" fill="#CE3E00"/>
<path id="Polygon 2" d="M168.329 83.548L150.522 76.9388L158.149 67.5132L168.329 83.548Z" fill="#0B8200"/>
<path id="Polygon 3" d="M131.08 78.7095L122.715 61.6573L134.735 60.0711L131.08 78.7095Z" fill="#0B8200"/>
<path id="Polygon 4" d="M166.08 118.71L157.715 101.657L169.735 100.071L166.08 118.71Z" fill="#0B8200"/>
<path id="Polygon 5" d="M136.319 102.116L127.3 118.832L119.025 109.971L136.319 102.116Z" fill="#0B8200"/>
<path id="Polygon 6" d="M143.734 160.717L148.894 142.438L158.901 149.284L143.734 160.717Z" fill="#0B8200"/>
<path id="Polygon 7" d="M146.489 193.649L131.138 182.464L141.032 175.456L146.489 193.649Z" fill="#0B8200"/>
</g>
<g id="pizza_face">
<g id="pizza_left_eye">
<circle id="pizza_left_eye_white" cx="3" cy="3" r="3" transform="matrix(1 0 0 -1 140 52)" fill="white"/>
<circle id="pizza_left_pupil" cx="144" cy="49" r="1" fill="black"/>
</g>
<g id="pizza_right_eye">
<circle id="pizza_right_eye_white" cx="3" cy="3" r="3" transform="matrix(1 0 0 -1 161 52)" fill="white"/>
<circle id="pizza_right_pupil" cx="165" cy="49" r="1" fill="black"/>
</g>
<path id="pizza_mouth" d="M149 53C150.833 55 155 58.5 160 53" stroke="black" stroke-width="2"/>
</g>
</g>
<g id="grissini">
<g id="grissini_body">
<g id="Subtract_3" filter="url(#filter1_i_1002_2)">
<path d="M188 75C193.523 75 198 79.4772 198 85V194H155V85C155 79.4772 159.477 75 165 75H188Z" fill="#FFD88F"/>
</g>
<ellipse id="Ellipse 29" cx="166" cy="122.5" rx="4" ry="5.5" transform="rotate(-14.4192 166 122.5)" fill="#D77200"/>
<ellipse id="Ellipse 30" cx="167.338" cy="103.059" rx="7.83981" ry="5.5" transform="rotate(22.2445 167.338 103.059)" fill="#D77200"/>
<ellipse id="Ellipse 41" cx="190.653" cy="102.896" rx="6.34005" ry="3.22644" transform="rotate(-6.23718 190.653 102.896)" fill="#D77200"/>
<ellipse id="Ellipse 40" cx="181.244" cy="113.323" rx="4" ry="5.5" transform="rotate(22.2445 181.244 113.323)" fill="#D77200"/>
<ellipse id="Ellipse 31" cx="187.082" cy="135" rx="5.18222" ry="7.60415" transform="rotate(22.2445 187.082 135)" fill="#D77200"/>
<ellipse id="Ellipse 32" cx="176.791" cy="128.296" rx="3.09723" ry="4.88957" transform="rotate(8.56386 176.791 128.296)" fill="#D77200"/>
<ellipse id="Ellipse 33" cx="188.791" cy="156.296" rx="3.09723" ry="4.88957" transform="rotate(-5.62375 188.791 156.296)" fill="#D77200"/>
<ellipse id="Ellipse 37" cx="178.075" cy="168.268" rx="3.75017" ry="7.72015" transform="rotate(-10.3366 178.075 168.268)" fill="#D77200"/>
<ellipse id="Ellipse 38" cx="165.365" cy="184.562" rx="3.75017" ry="7.72015" transform="rotate(21.958 165.365 184.562)" fill="#D77200"/>
<ellipse id="Ellipse 39" cx="190" cy="183.351" rx="2.15491" ry="5.05392" transform="rotate(10.0028 190 183.351)" fill="#D77200"/>
<ellipse id="Ellipse 35" cx="164.791" cy="158.296" rx="3.09723" ry="4.88957" transform="rotate(8.56386 164.791 158.296)" fill="#D77200"/>
<ellipse id="Ellipse 34" cx="175.791" cy="144.296" rx="3.09723" ry="4.88957" transform="rotate(8.56386 175.791 144.296)" fill="#D77200"/>
<ellipse id="Ellipse 36" cx="163.786" cy="141.296" rx="3.09723" ry="4.88957" transform="rotate(-123.845 163.786 141.296)" fill="#D77200"/>
</g>
<g id="grissini_face">
<g id="grissini_left_eye">
<circle id="grissini_left_eye_white" cx="174.5" cy="85.5" r="4.5" fill="white"/>
<circle id="grissini_left_pupil" cx="176.5" cy="85.5" r="1.5" fill="black"/>
</g>
<g id="grissini_right_eye">
<circle id="grissini_right_eye_white" cx="190.5" cy="85.5" r="4.5" fill="white"/>
<circle id="grissini_right_pupil" cx="192.5" cy="85.5" r="1.5" fill="black"/>
</g>
</g>
</g>
<g id="mochi">
<g id="mochi_body" filter="url(#filter2_i_1002_2)">
<path d="M150 193.5C150 176.128 143.099 159.468 130.815 147.185C118.532 134.901 101.872 128 84.5 128C67.1283 128 50.4681 134.901 38.1845 147.184C25.9009 159.468 19 176.128 19 193.5L84.5 193.5H150Z" fill="#FF6C37"/>
</g>
<g id="mochi_face">
<path id="mochi_mouth" d="M92 169.5C92 171.224 91.2625 172.877 89.9497 174.096C88.637 175.315 86.8565 176 85 176C83.1435 176 81.363 175.315 80.0503 174.096C78.7375 172.877 78 171.224 78 169.5L85 169.5H92Z" fill="black"/>
<circle id="mochi_left_eye" cx="72.5" cy="163.5" r="2.5" fill="black"/>
<circle id="mochi_right_eye" cx="97.5" cy="163.5" r="2.5" fill="black"/>
</g>
</g>
</g>
<defs>
<filter id="filter0_i_1002_2" x="198" y="102" width="45" height="96" filterUnits="userSpaceOnUse" color-interpolation-filters="sRGB">
<feFlood flood-opacity="0" result="BackgroundImageFix"/>
<feBlend mode="normal" in="SourceGraphic" in2="BackgroundImageFix" result="shape"/>
<feColorMatrix in="SourceAlpha" type="matrix" values="0 0 0 0 0 0 0 0 0 0 0 0 0 0 0 0 0 0 127 0" result="hardAlpha"/>
<feOffset dy="4"/>
<feGaussianBlur stdDeviation="2"/>
<feComposite in2="hardAlpha" operator="arithmetic" k2="-1" k3="1"/>
<feColorMatrix type="matrix" values="0 0 0 0 0.475962 0 0 0 0 0.475962 0 0 0 0 0.475962 0 0 0 0.6 0"/>
<feBlend mode="normal" in2="shape" result="effect1_innerShadow_1002_2"/>
</filter>
<filter id="filter1_i_1002_2" x="155" y="75" width="43" height="123" filterUnits="userSpaceOnUse" color-interpolation-filters="sRGB">
<feFlood flood-opacity="0" result="BackgroundImageFix"/>
<feBlend mode="normal" in="SourceGraphic" in2="BackgroundImageFix" result="shape"/>
<feColorMatrix in="SourceAlpha" type="matrix" values="0 0 0 0 0 0 0 0 0 0 0 0 0 0 0 0 0 0 127 0" result="hardAlpha"/>
<feOffset dy="4"/>
<feGaussianBlur stdDeviation="2"/>
<feComposite in2="hardAlpha" operator="arithmetic" k2="-1" k3="1"/>
<feColorMatrix type="matrix" values="0 0 0 0 1 0 0 0 0 1 0 0 0 0 1 0 0 0 0.4 0"/>
<feBlend mode="normal" in2="shape" result="effect1_innerShadow_1002_2"/>
</filter>
<filter id="filter2_i_1002_2" x="19" y="128" width="131" height="69.5" filterUnits="userSpaceOnUse" color-interpolation-filters="sRGB">
<feFlood flood-opacity="0" result="BackgroundImageFix"/>
<feBlend mode="normal" in="SourceGraphic" in2="BackgroundImageFix" result="shape"/>
<feColorMatrix in="SourceAlpha" type="matrix" values="0 0 0 0 0 0 0 0 0 0 0 0 0 0 0 0 0 0 127 0" result="hardAlpha"/>
<feOffset dy="4"/>
<feGaussianBlur stdDeviation="3.5"/>
<feComposite in2="hardAlpha" operator="arithmetic" k2="-1" k3="1"/>
<feColorMatrix type="matrix" values="0 0 0 0 1 0 0 0 0 1 0 0 0 0 1 0 0 0 0.6 0"/>
<feBlend mode="normal" in2="shape" result="effect1_innerShadow_1002_2"/>
</filter>
<clipPath id="clip0_1002_2">
<rect width="274" height="218" fill="white"/>
</clipPath>
</defs>
</svg>
